<svg width="222" height="251" viewBox="0 0 222 251" fill="none" xmlns="http://www.w3.org/2000/svg">
<g clip-path="url(#clip0_2_14)">
<path d="M103.06 248.772L7.53665 193.607C5.24641 192.28 3.34488 190.374 2.02227 188.081C0.699653 185.788 0.00232421 183.188 3.2813e-05 180.541V70.2563C-0.00549748 67.6016 0.688121 64.9922 2.01112 62.6907C3.33413 60.3891 5.23986 58.4765 7.53665 57.1453L103.06 2.0254C105.358 0.698538 107.965 0 110.619 0C113.273 0 115.88 0.698538 118.178 2.0254L213.656 57.1899C215.953 58.5211 217.859 60.4337 219.182 62.7353C220.505 65.0368 221.199 67.6462 221.193 70.3009V180.541C221.199 183.195 220.505 185.805 219.182 188.106C217.859 190.408 215.953 192.32 213.656 193.652L118.178 248.772C115.88 250.098 113.273 250.797 110.619 250.797C107.965 250.797 105.358 250.098 103.06 248.772V248.772Z" fill="white"/>
<path d="M117.006 61.2155H130.33V56.5821H121.664V48.1316H108.004V52.765H117.006V61.2155Z" fill="url(#paint0_linear_2_14)"/>
<path d="M108.028 72.0667H112.685V58.4067H104.211V49.7401H99.5771V63.064H108.028V72.0667Z" fill="url(#paint1_linear_2_14)"/>
<path d="M126.465 78.6687H131.123V70.0261H139.573V56.366H134.916V65.3687H126.465V78.6687Z" fill="url(#paint2_linear_2_14)"/>
<path d="M116.838 75.1636H108.436L108.196 85.7028L112.853 85.7988L112.997 79.821H121.496V66.1609H116.838V75.1636Z" fill="url(#paint3_linear_2_14)"/>
<path d="M148.144 83.23H143.51V92.2327H135.06V105.557H139.693V96.8901H148.144V83.23Z" fill="url(#paint4_linear_2_14)"/>
<path d="M134.844 83.254H124.208V87.9114H139.501V79.4369H146.535V74.8035H134.844V83.254Z" fill="url(#paint5_linear_2_14)"/>
<path d="M139.909 114.799V110.142H130.906V99.7469H117.607V104.404H126.249V114.799H139.909Z" fill="url(#paint6_linear_2_14)"/>
<path d="M116.454 85.8228V96.3619H130.114V91.7046H121.112V85.8228H116.454Z" fill="url(#paint7_linear_2_14)"/>
<path d="M113.045 123.37V118.737H104.042V110.286H90.7185V114.919H99.3851V123.37H113.045Z" fill="url(#paint8_linear_2_14)"/>
<path d="M121.472 121.762V108.438H113.021V99.4349H108.364V113.095H116.838V121.762H121.472Z" fill="url(#paint9_linear_2_14)"/>
<path d="M86.1332 106.133H94.5837V92.8329H89.9263V101.475H81.4758V115.136H86.1332V106.133Z" fill="url(#paint10_linear_2_14)"/>
<path d="M99.5532 105.341H104.211V94.7775H112.925V90.1201H99.5532V105.341Z" fill="url(#paint11_linear_2_14)"/>
<path d="M77.5386 79.2689H86.4452V65.9449H81.8119V74.6115H72.9052V88.2715H77.5386V79.2689Z" fill="url(#paint12_linear_2_14)"/>
<path d="M81.8118 92.0647H74.5137V96.6981H86.4452V88.2475H96.8403V83.5901H81.8118V92.0647Z" fill="url(#paint13_linear_2_14)"/>
<path d="M90.1423 71.5626H103.442V66.9292H94.7997V56.7021H81.1396V61.3595H90.1423V71.5626Z" fill="url(#paint14_linear_2_14)"/>
<path d="M90.9346 79.4369H99.9373V85.5587H104.595V74.7795H90.9346V79.4369Z" fill="url(#paint15_linear_2_14)"/>
<path d="M59.7946 137.433V143.026H52.8621V179.203H47.2694V143.026H39.6378V137.433H59.7946ZM76.2812 157.182H68.2418V173.61H76.3395V179.145H62.7074V137.55H76.3395V143.084H68.2418V151.648H76.2812V157.182ZM87.0587 179.028C82.7477 179.028 79.2523 175.533 79.2523 171.222V145.356C79.2523 141.045 82.7477 137.55 87.0587 137.55C91.3697 137.55 94.8651 141.045 94.8651 145.356V147.686H89.3307V145.356C89.3307 144.133 88.2821 143.084 87.0587 143.084C85.8353 143.084 84.7867 144.133 84.7867 145.356V171.222C84.7867 172.445 85.8353 173.494 87.0587 173.494C88.2821 173.494 89.3307 172.445 89.3307 171.222V167.494H94.8651V171.222C94.8651 175.533 91.3697 179.028 87.0587 179.028ZM111.293 169.591L111.526 137.317H117.119L116.77 179.378H108.089L103.371 146.812V179.378H97.7779V137.317H106.808L111.293 169.591ZM127.897 179.203C123.527 179.203 120.032 175.649 120.032 171.338V145.181C120.032 140.87 123.527 137.375 127.897 137.375C132.208 137.375 135.703 140.87 135.703 145.181V171.338C135.703 175.649 132.208 179.203 127.897 179.203V179.203ZM127.897 142.909C126.615 142.909 125.625 143.958 125.625 145.181V171.338C125.625 172.62 126.615 173.61 127.897 173.61C129.12 173.61 130.169 172.62 130.169 171.338V145.181C130.169 143.958 129.12 142.909 127.897 142.909V142.909ZM146.422 179.028C142.111 179.028 138.616 175.533 138.616 171.222V145.356C138.616 141.045 142.111 137.55 146.422 137.55C150.733 137.55 154.229 141.045 154.229 145.356V147.686H148.694V145.356C148.694 144.133 147.646 143.084 146.422 143.084C145.199 143.084 144.15 144.133 144.15 145.356V171.222C144.15 172.445 145.199 173.494 146.422 173.494C147.646 173.494 148.694 172.445 148.694 171.222V167.494H154.229V171.222C154.229 175.533 150.733 179.028 146.422 179.028ZM162.676 137.433V178.912H157.141V137.433H162.676V137.433ZM173.395 179.028C169.084 179.028 165.589 175.533 165.589 171.222V145.356C165.589 141.045 169.084 137.55 173.395 137.55C177.706 137.55 181.201 141.045 181.201 145.356V147.686H175.667V145.356C175.667 144.133 174.618 143.084 173.395 143.084C172.172 143.084 171.123 144.133 171.123 145.356V171.222C171.123 172.445 172.172 173.494 173.395 173.494C174.618 173.494 175.667 172.445 175.667 171.222V167.494H181.201V171.222C181.201 175.533 177.706 179.028 173.395 179.028Z" fill="#E03E36"/>
<path d="M43.5921 193.255C43.3556 193.267 43.1192 193.304 42.8828 193.379C42.3726 193.553 41.9122 193.902 41.6011 194.35C41.3273 194.76 41.2153 195.246 41.178 195.731C41.1531 196.104 41.1904 196.49 41.3647 196.826C41.5513 197.187 41.8748 197.498 42.1486 197.796C42.3975 198.058 42.6464 198.319 42.9201 198.556C43.169 198.792 43.4552 198.979 43.7041 199.227C44.0649 199.588 44.2018 200.41 43.9405 200.858C43.6294 201.355 42.8952 201.43 42.4099 201.268C42.1611 201.181 41.9371 200.994 41.7255 200.845C41.6011 200.758 41.4518 200.721 41.3647 200.87C41.3149 200.945 41.29 201.032 41.2651 201.106C41.178 201.418 41.066 201.704 41.0536 202.04C41.0411 202.426 41.7753 202.538 42.0491 202.6C43.2685 202.886 44.7369 202.662 45.3715 201.455C45.496 201.206 45.5831 200.945 45.6328 200.671C45.6453 200.571 45.6577 200.484 45.6577 200.385C45.7075 199.588 45.384 198.916 44.8987 198.319C44.376 197.672 43.7165 197.224 43.1068 196.664C42.7335 196.316 42.5966 195.768 42.7086 195.27C42.8206 194.735 43.4303 194.598 43.8907 194.735C44.0276 194.773 44.1396 194.835 44.264 194.91C44.3387 194.947 44.4134 194.997 44.5129 194.997C44.6871 195.009 44.712 194.872 44.7493 194.735C44.8364 194.424 44.9858 194.175 45.048 193.877C45.1102 193.541 44.8364 193.479 44.5627 193.391C44.2391 193.304 43.9281 193.242 43.5921 193.255V193.255ZM62.2315 195.606C62.4928 196.378 62.555 197.212 62.555 198.033C62.555 198.717 62.4306 199.377 62.2564 200.036C62.0324 200.82 61.6591 201.53 60.9871 201.99C60.4894 202.351 59.9667 202.587 59.357 202.65C59.2699 202.65 59.1952 202.662 59.1081 202.662C59.0335 202.662 58.9588 202.65 58.8717 202.65C58.262 202.587 57.7393 202.351 57.2291 201.99C56.5696 201.53 56.1839 200.82 55.9723 200.036C55.7857 199.377 55.6737 198.717 55.6737 198.033C55.6737 197.212 55.7359 196.378 55.9972 195.606C56.4576 194.275 57.7269 193.329 59.1081 193.304C60.4894 193.329 61.7586 194.275 62.2315 195.606V195.606ZM61.0245 198.941C61.1489 198.182 61.0991 197.411 60.9498 196.652C60.8005 195.967 60.5018 195.295 59.9294 194.885C59.8299 194.81 59.7179 194.748 59.6059 194.71C59.4441 194.636 59.2699 194.611 59.1081 194.611C58.9464 194.611 58.7846 194.636 58.6228 194.71C58.4984 194.748 58.3988 194.81 58.2993 194.885C57.7144 195.295 57.4158 195.967 57.2789 196.652C57.1296 197.411 57.0798 198.182 57.2042 198.941C57.3287 199.626 57.5775 200.547 58.2246 200.895C58.4984 201.044 58.797 201.144 59.1081 201.156C59.4192 201.144 59.7303 201.044 60.0041 200.895C60.6511 200.547 60.9 199.626 61.0245 198.941ZM72.571 194.536C72.5585 195.308 72.6332 200.945 72.6207 201.355C72.6207 201.741 72.6207 202.127 72.6332 202.513C72.6332 202.575 72.6705 202.637 72.7327 202.637C73.6038 202.674 74.4624 202.6 75.3335 202.612C75.6197 202.625 75.9059 202.612 76.1796 202.612C76.4534 202.6 76.4783 202.488 76.4658 202.264C76.4534 201.915 76.4534 201.604 76.4534 201.268C76.4409 201.094 76.3414 201.032 76.1921 201.032C75.6819 201.044 75.1717 201.019 74.6615 201.044C74.5744 201.057 74.4873 201.057 74.4002 201.057C74.2509 201.044 74.2135 201.007 74.2011 200.845V200.659C74.1638 199.626 74.2384 198.556 74.2384 197.523C74.226 196.652 74.2384 195.868 74.226 195.096C74.226 194.76 74.226 194.424 74.2135 194.101C74.2011 193.902 74.2135 193.69 74.1638 193.491C74.1389 193.416 74.1015 193.317 74.0144 193.317H72.8447C72.6456 193.317 72.5834 193.454 72.571 193.653V194.536V194.536ZM86.4818 195.358C86.4818 196.614 86.4942 197.884 86.5191 199.128C86.5315 199.887 86.5191 200.746 86.88 201.442C87.3404 202.338 88.3608 202.737 89.3438 202.674C90.0158 202.625 90.638 202.45 91.1233 201.953C91.9446 201.069 91.7828 199.688 91.7952 198.556C91.8201 196.925 91.8574 195.407 91.8574 193.765C91.8574 193.491 91.7703 193.342 91.4966 193.329C91.1606 193.317 90.8246 193.329 90.4886 193.354C90.3518 193.354 90.2398 193.479 90.2398 193.628C90.2522 194.822 90.2771 196.029 90.2647 197.237C90.2522 198.269 90.3891 199.414 90.0033 200.397C89.854 200.758 89.518 201.032 89.1198 201.032C88.1243 201.007 88.1617 199.825 88.1243 199.128C88.0497 197.61 88.1617 196.054 88.199 194.536C88.199 194.25 88.199 193.964 88.2114 193.678C88.2239 193.528 88.2488 193.342 88.0497 193.329H87.8257C87.5146 193.354 87.2035 193.317 86.8924 193.329C86.5938 193.354 86.4942 193.441 86.4942 193.74C86.4942 194.275 86.4818 194.822 86.4818 195.358V195.358ZM106.789 194.785C106.801 194.374 106.789 194.038 106.789 193.64C106.789 193.18 105.955 193.23 105.656 193.242C104.325 193.329 103.056 194.175 102.446 195.333C102.272 195.669 102.147 196.017 102.06 196.378C101.848 197.224 101.836 198.12 101.936 198.979C102.023 199.787 102.234 200.596 102.732 201.243C103.591 202.376 105.171 202.774 106.527 202.562C106.59 202.55 106.652 202.538 106.702 202.5C106.739 202.475 106.776 202.426 106.776 202.376L106.814 201.666C106.826 201.442 106.814 201.455 106.814 201.231C106.814 200.932 106.191 201.156 105.806 201.156C105.432 201.156 105.034 201.144 104.698 200.97C104.101 200.634 103.765 199.962 103.578 199.327C103.367 198.643 103.317 197.908 103.441 197.212C103.591 196.303 104.026 195.258 104.984 194.947C105.532 194.76 106.117 194.822 106.664 194.885C106.739 194.897 106.789 194.847 106.789 194.785V194.785ZM118.547 199.439C118.509 198.02 118.522 196.515 118.534 195.109C118.534 194.673 118.509 194.2 118.509 193.765C118.509 193.292 118.323 193.317 118.074 193.304C117.713 193.292 117.551 193.292 117.19 193.292C116.954 193.279 116.854 193.342 116.854 193.578C116.854 194.798 116.817 198.244 116.829 198.742C116.842 199.24 116.892 201.505 116.867 202.002C116.854 202.177 116.867 202.351 116.879 202.525C116.892 202.587 116.929 202.65 117.029 202.65C117.439 202.625 117.825 202.625 118.236 202.612C118.385 202.6 118.509 202.562 118.572 202.401C118.584 202.314 118.547 200.036 118.547 199.439V199.439ZM135.145 195.606C135.407 196.378 135.469 197.212 135.469 198.033C135.469 198.717 135.344 199.377 135.17 200.036C134.946 200.82 134.573 201.53 133.901 201.99C133.403 202.351 132.881 202.587 132.271 202.65C132.184 202.65 132.109 202.662 132.022 202.662C131.947 202.662 131.873 202.65 131.786 202.65C131.176 202.587 130.653 202.351 130.143 201.99C129.483 201.53 129.098 200.82 128.886 200.036C128.699 199.377 128.588 198.717 128.588 198.033C128.588 197.212 128.65 196.378 128.911 195.606C129.371 194.275 130.641 193.329 132.022 193.304C133.403 193.329 134.672 194.275 135.145 195.606V195.606ZM133.938 198.941C134.063 198.182 134.013 197.411 133.864 196.652C133.714 195.967 133.416 195.295 132.843 194.885C132.744 194.81 132.632 194.748 132.52 194.71C132.358 194.636 132.184 194.611 132.022 194.611C131.86 194.611 131.698 194.636 131.537 194.71C131.412 194.748 131.313 194.81 131.213 194.885C130.628 195.295 130.33 195.967 130.193 196.652C130.043 197.411 129.994 198.182 130.118 198.941C130.243 199.626 130.491 200.547 131.138 200.895C131.412 201.044 131.711 201.144 132.022 201.156C132.333 201.144 132.644 201.044 132.918 200.895C133.565 200.547 133.814 199.626 133.938 198.941V198.941ZM150.786 193.603C150.823 193.777 150.798 202.065 150.798 202.276C150.798 202.65 150.661 202.637 150.413 202.637C150.039 202.637 149.517 202.699 149.405 202.575C149.305 202.488 147.463 198.045 147.202 197.485C147.177 197.436 147.115 197.311 147.065 197.336C147.003 197.361 147.028 197.448 147.028 197.498C147.015 197.933 147.09 201.691 147.09 202.289C147.09 202.587 147.078 202.637 146.829 202.637H146.207C146.045 202.637 145.846 202.625 145.684 202.65C145.559 202.65 145.497 202.612 145.485 202.488V201.505C145.51 200.459 145.485 194.262 145.485 193.802C145.485 193.404 145.597 193.329 145.995 193.329C146.269 193.317 146.543 193.317 146.816 193.317C146.903 193.317 146.953 193.329 147.003 193.441C147.339 194.225 148.77 197.821 148.994 198.257C149.031 198.344 149.168 198.692 149.243 198.73H149.255C149.305 198.68 149.293 198.431 149.293 198.356C149.293 198.17 149.193 193.802 149.193 193.715C149.193 193.59 149.156 193.479 149.218 193.391C149.255 193.342 149.417 193.329 149.479 193.317C149.828 193.292 150.238 193.329 150.587 193.317C150.761 193.317 150.748 193.441 150.786 193.603V193.603ZM160.839 200.099H160.827C160.827 200.41 160.814 200.733 160.827 201.057C160.839 201.455 160.864 201.853 160.889 202.251C160.889 202.388 160.926 202.426 161.051 202.45C161.312 202.513 161.561 202.525 161.822 202.525C162.494 202.5 163.166 202.55 163.838 202.525C164.112 202.513 164.236 202.538 164.51 202.488C164.759 202.438 164.846 202.301 164.846 201.928C164.821 201.691 164.834 201.592 164.834 201.306C164.834 200.895 164.547 200.758 164.298 200.771C164.124 200.783 163.29 200.758 162.955 200.758C162.395 200.771 162.482 200.845 162.482 200.26C162.482 199.787 162.494 199.178 162.494 198.692C162.494 198.431 162.519 198.344 162.768 198.344H164.323C164.572 198.381 164.746 198.207 164.746 197.946C164.746 197.684 164.771 197.672 164.771 197.411L164.734 197.037C164.709 196.826 164.634 196.751 164.423 196.751C164.286 196.751 164.149 196.764 164.012 196.776C163.477 196.813 163.228 196.739 162.706 196.776C162.531 196.776 162.507 196.751 162.494 196.589C162.444 196.104 162.494 195.569 162.544 195.084C162.556 194.885 162.606 194.847 162.793 194.835L164.547 194.822C164.784 194.798 164.858 194.81 164.846 194.574C164.821 194.213 164.858 193.839 164.821 193.479C164.796 193.279 164.734 193.242 164.51 193.242C164.137 193.255 164.05 193.255 163.676 193.279C163.303 193.292 161.81 193.292 161.449 193.292C160.926 193.292 160.889 193.255 160.876 193.889C160.852 194.387 160.864 194.897 160.864 195.407C160.864 196.278 160.814 199.402 160.839 200.099V200.099ZM177.4 193.255C177.164 193.267 176.928 193.304 176.691 193.379C176.181 193.553 175.72 193.902 175.409 194.35C175.136 194.76 175.024 195.246 174.986 195.731C174.961 196.104 174.999 196.49 175.173 196.826C175.36 197.187 175.683 197.498 175.957 197.796C176.206 198.058 176.455 198.319 176.728 198.556C176.977 198.792 177.264 198.979 177.512 199.227C177.873 199.588 178.01 200.41 177.749 200.858C177.438 201.355 176.704 201.43 176.218 201.268C175.969 201.181 175.745 200.994 175.534 200.845C175.409 200.758 175.26 200.721 175.173 200.87C175.123 200.945 175.098 201.032 175.073 201.106C174.986 201.418 174.874 201.704 174.862 202.04C174.849 202.426 175.584 202.538 175.857 202.6C177.077 202.886 178.545 202.662 179.18 201.455C179.304 201.206 179.391 200.945 179.441 200.671C179.454 200.571 179.466 200.484 179.466 200.385C179.516 199.588 179.192 198.916 178.707 198.319C178.184 197.672 177.525 197.224 176.915 196.664C176.542 196.316 176.405 195.768 176.517 195.27C176.629 194.735 177.239 194.598 177.699 194.735C177.836 194.773 177.948 194.835 178.072 194.91C178.147 194.947 178.222 194.997 178.321 194.997C178.495 195.009 178.52 194.872 178.558 194.735C178.645 194.424 178.794 194.175 178.856 193.877C178.919 193.541 178.645 193.479 178.371 193.391C178.047 193.304 177.736 193.242 177.4 193.255V193.255Z" fill="#0D0D0D"/>
</g>
<defs>
<linearGradient id="paint0_linear_2_14" x1="108.004" y1="48.1316" x2="130.33" y2="48.1316" gradientUnits="userSpaceOnUse">
<stop stop-color="#7D141D"/>
<stop offset="1" stop-color="#FF1E27"/>
</linearGradient>
<linearGradient id="paint1_linear_2_14" x1="99.5771" y1="49.7401" x2="112.685" y2="49.7401" gradientUnits="userSpaceOnUse">
<stop stop-color="#7D141D"/>
<stop offset="1" stop-color="#FF1E27"/>
</linearGradient>
<linearGradient id="paint2_linear_2_14" x1="126.465" y1="56.366" x2="139.573" y2="56.366" gradientUnits="userSpaceOnUse">
<stop stop-color="#7D141D"/>
<stop offset="1" stop-color="#FF1E27"/>
</linearGradient>
<linearGradient id="paint3_linear_2_14" x1="108.196" y1="66.1609" x2="121.496" y2="66.1609" gradientUnits="userSpaceOnUse">
<stop stop-color="#7D141D"/>
<stop offset="1" stop-color="#FF1E27"/>
</linearGradient>
<linearGradient id="paint4_linear_2_14" x1="135.06" y1="83.23" x2="148.144" y2="83.23" gradientUnits="userSpaceOnUse">
<stop stop-color="#7D141D"/>
<stop offset="1" stop-color="#FF1E27"/>
</linearGradient>
<linearGradient id="paint5_linear_2_14" x1="124.208" y1="74.8035" x2="146.535" y2="74.8035" gradientUnits="userSpaceOnUse">
<stop stop-color="#7D141D"/>
<stop offset="1" stop-color="#FF1E27"/>
</linearGradient>
<linearGradient id="paint6_linear_2_14" x1="117.607" y1="99.7469" x2="139.909" y2="99.7469" gradientUnits="userSpaceOnUse">
<stop stop-color="#7D141D"/>
<stop offset="1" stop-color="#FF1E27"/>
</linearGradient>
<linearGradient id="paint7_linear_2_14" x1="116.454" y1="85.8228" x2="130.114" y2="85.8228" gradientUnits="userSpaceOnUse">
<stop stop-color="#7D141D"/>
<stop offset="1" stop-color="#FF1E27"/>
</linearGradient>
<linearGradient id="paint8_linear_2_14" x1="90.7185" y1="110.286" x2="113.045" y2="110.286" gradientUnits="userSpaceOnUse">
<stop stop-color="#7D141D"/>
<stop offset="1" stop-color="#FF1E27"/>
</linearGradient>
<linearGradient id="paint9_linear_2_14" x1="108.364" y1="99.4349" x2="121.472" y2="99.4349" gradientUnits="userSpaceOnUse">
<stop stop-color="#7D141D"/>
<stop offset="1" stop-color="#FF1E27"/>
</linearGradient>
<linearGradient id="paint10_linear_2_14" x1="81.4758" y1="92.8329" x2="94.5837" y2="92.8329" gradientUnits="userSpaceOnUse">
<stop stop-color="#7D141D"/>
<stop offset="1" stop-color="#FF1E27"/>
</linearGradient>
<linearGradient id="paint11_linear_2_14" x1="99.5532" y1="90.1201" x2="112.925" y2="90.1201" gradientUnits="userSpaceOnUse">
<stop stop-color="#7D141D"/>
<stop offset="1" stop-color="#FF1E27"/>
</linearGradient>
<linearGradient id="paint12_linear_2_14" x1="72.9052" y1="65.9449" x2="86.4452" y2="65.9449" gradientUnits="userSpaceOnUse">
<stop stop-color="#7D141D"/>
<stop offset="1" stop-color="#FF1E27"/>
</linearGradient>
<linearGradient id="paint13_linear_2_14" x1="74.5137" y1="83.5901" x2="96.8403" y2="83.5901" gradientUnits="userSpaceOnUse">
<stop stop-color="#7D141D"/>
<stop offset="1" stop-color="#FF1E27"/>
</linearGradient>
<linearGradient id="paint14_linear_2_14" x1="81.1396" y1="56.7021" x2="103.442" y2="56.7021" gradientUnits="userSpaceOnUse">
<stop stop-color="#7D141D"/>
<stop offset="1" stop-color="#FF1E27"/>
</linearGradient>
<linearGradient id="paint15_linear_2_14" x1="90.9346" y1="74.7795" x2="104.595" y2="74.7795" gradientUnits="userSpaceOnUse">
<stop stop-color="#7D141D"/>
<stop offset="1" stop-color="#FF1E27"/>
</linearGradient>
<clipPath id="clip0_2_14">
<rect width="221.193" height="250.797" fill="white"/>
</clipPath>
</defs>
</svg>
